<?xml version="1.0" standalone="no"?>
<!DOCTYPE svg PUBLIC "-//W3C//DTD SVG 20010904//EN"
 "http://www.w3.org/TR/2001/REC-SVG-20010904/DTD/svg10.dtd">
<svg version="1.0" xmlns="http://www.w3.org/2000/svg"
 width="192.000000pt" height="192.000000pt" viewBox="0 0 192.000000 192.000000"
 preserveAspectRatio="xMidYMid meet">

<g transform="translate(0.000000,192.000000) scale(0.100000,-0.100000)"
fill="#000000" stroke="none">
<path d="M765 1853 c-264 -56 -503 -242 -627 -488 -65 -128 -105 -332 -93
-470 21 -235 118 -439 281 -596 129 -123 257 -191 439 -235 107 -26 296 -24
410 5 345 86 608 359 679 703 21 99 21 277 0 376 -72 351 -355 634 -707 706
-96 20 -288 20 -382 -1z m823 -675 c19 -19 14 -56 -8 -63 -41 -13 -69 43 -32
64 22 13 26 13 40 -1z m-1170 -94 c23 -16 30 -62 12 -80 -8 -8 -6 -15 5 -24
21 -17 19 -57 -4 -70 -11 -5 -45 -10 -75 -10 l-56 0 0 93 c0 52 3 97 7 100 12
13 89 7 111 -9z m512 2 c0 -8 -10 -16 -22 -18 -20 -3 -23 -9 -24 -53 -2 -117
-2 -115 -29 -115 -25 0 -25 1 -25 85 0 78 -2 85 -20 85 -11 0 -20 7 -20 15 0
12 14 15 70 15 54 0 70 -3 70 -14z m-147 -413 c-27 -5 -31 -32 -5 -34 16 -1
16 -2 0 -6 -25 -6 -22 -21 5 -26 16 -3 13 -5 -10 -6 -31 -1 -33 1 -33 32 0 41
6 47 39 46 24 -2 24 -2 4 -6z m127 -35 l0 -41 -25 23 -25 23 -1 -24 c-1 -20
-2 -18 -10 10 -13 43 -5 50 26 21 l25 -23 0 26 c0 15 2 27 5 27 3 0 5 -19 5
-42z m93 35 c-27 -5 -31 -32 -5 -34 16 -1 16 -2 0 -6 -25 -6 -22 -21 5 -26 16
-3 13 -5 -10 -6 -31 -1 -33 1 -33 32 0 41 6 47 39 46 24 -2 24 -2 4 -6z m114
-5 c9 -15 11 -68 3 -68 -4 0 -12 6 -18 12 -10 10 -15 10 -21 -1 -6 -9 -10 -3
-14 20 -2 19 -3 37 0 42 7 12 41 8 50 -5z m119 1 c4 -7 0 -9 -13 -5 -24 8 -48
-17 -39 -39 8 -21 43 -19 49 3 4 15 5 15 6 0 1 -23 -15 -31 -45 -24 -41 11
-27 76 17 76 10 0 21 -5 25 -11z m90 -12 c7 10 14 13 14 6 0 -6 -4 -15 -10
-18 -5 -3 -10 -16 -10 -28 0 -17 -4 -14 -20 16 -24 44 -26 61 -3 29 15 -21 16
-21 29 -5z"/>
<path d="M350 1040 c0 -25 4 -31 18 -28 11 2 17 12 17 28 0 16 -6 26 -17 28
-14 3 -18 -3 -18 -28z"/>
<path d="M350 961 c0 -37 17 -49 38 -27 19 19 7 49 -22 54 -12 3 -16 -4 -16
-27z"/>
<path d="M1080 650 c0 -13 5 -20 13 -17 6 2 12 10 12 17 0 7 -6 15 -12 18 -8
2 -13 -5 -13 -18z"/>
</g>
</svg>
